<?xml version="1.0" encoding="utf-8"?>
<!-- Generator: Adobe Illustrator 15.0.0, SVG Export Plug-In . SVG Version: 6.00 Build 0)  -->
<!DOCTYPE svg PUBLIC "-//W3C//DTD SVG 1.1//EN" "http://www.w3.org/Graphics/SVG/1.1/DTD/svg11.dtd">
<svg version="1.1" id="Layer_1" xmlns="http://www.w3.org/2000/svg" xmlns:xlink="http://www.w3.org/1999/xlink" x="0px" y="0px"
	 width="24.068px" height="22.549px" viewBox="0 0 24.068 22.549" enable-background="new 0 0 24.068 22.549" xml:space="preserve">
<rect x="-371.137" y="-170.451" width="477" height="45"/>
<rect x="-202.674" y="6.632" fill="none" width="92.5" height="10"/>
<text transform="matrix(1 0 0 1 -202.1074 15.1514)" fill="#FFFFFF" font-family="'MyriadPro-Regular'" font-size="12">Air-hockey system</text>
<polygon fill="#FFFFFF" points="236.326,3.549 222.797,19.174 209.654,3.549 "/>
<path d="M24.068,4.228v14.094c0,1.165-0.441,2.161-1.324,2.987c-0.883,0.827-1.947,1.24-3.189,1.24h-3.51
	c-0.168,0-0.295-0.004-0.385-0.014c-0.088-0.01-0.189-0.035-0.305-0.074s-0.199-0.109-0.25-0.213
	c-0.053-0.103-0.078-0.236-0.078-0.403v-3.509c0-0.949-0.273-1.645-0.816-2.085c0.596-0.059,1.131-0.146,1.607-0.265
	c0.475-0.117,0.965-0.308,1.473-0.572c0.506-0.264,0.93-0.59,1.27-0.977c0.338-0.387,0.615-0.9,0.83-1.541
	c0.213-0.641,0.32-1.377,0.32-2.209c0-1.185-0.412-2.193-1.238-3.024c0.387-0.891,0.346-1.89-0.125-2.995
	c-0.291-0.088-0.715-0.034-1.27,0.162c-0.553,0.195-1.033,0.41-1.441,0.646l-0.594,0.353c-0.973-0.255-1.975-0.383-3.01-0.383
	c-1.033,0-2.037,0.128-3.008,0.383c-0.168-0.107-0.389-0.24-0.666-0.396S7.646,5.086,7.051,4.866S6.006,4.58,5.703,4.668
	C5.244,5.773,5.207,6.772,5.594,7.663c-0.824,0.831-1.238,1.84-1.238,3.024c0,0.832,0.107,1.565,0.322,2.201
	c0.213,0.637,0.488,1.15,0.822,1.542s0.754,0.72,1.262,0.983c0.506,0.265,0.996,0.455,1.473,0.572
	c0.475,0.118,1.01,0.206,1.605,0.265c-0.418,0.353-0.674,0.856-0.768,1.513c-0.219,0.098-0.455,0.171-0.705,0.22
	c-0.25,0.05-0.549,0.073-0.893,0.073c-0.346,0-0.688-0.105-1.027-0.315s-0.629-0.517-0.869-0.917
	c-0.199-0.313-0.451-0.568-0.76-0.764s-0.566-0.313-0.775-0.353l-0.314-0.044c-0.219,0-0.371,0.021-0.453,0.066
	c-0.084,0.043-0.109,0.1-0.078,0.168s0.078,0.138,0.141,0.206s0.131,0.127,0.203,0.177l0.109,0.072
	c0.23,0.098,0.457,0.284,0.682,0.559c0.225,0.273,0.389,0.523,0.494,0.748l0.156,0.338c0.137,0.372,0.365,0.673,0.689,0.903
	c0.324,0.229,0.674,0.376,1.051,0.44c0.375,0.063,0.738,0.098,1.088,0.103s0.641-0.013,0.869-0.052l0.361-0.059
	c0,0.372,0.002,0.876,0.008,1.512c0.006,0.637,0.008,0.97,0.008,0.999c0,0.216-0.057,0.38-0.172,0.491
	c-0.115,0.113-0.23,0.177-0.346,0.191s-0.287,0.021-0.516,0.021H4.512c-1.242,0-2.305-0.413-3.188-1.24
	C0.441,20.482,0,19.486,0,18.321V4.228C0,3.063,0.441,2.066,1.324,1.24C2.207,0.413,3.27,0,4.512,0h15.043
	c1.242,0,2.307,0.413,3.189,1.24C23.627,2.066,24.068,3.063,24.068,4.228z"/>
</svg>
