<?xml version="1.0" encoding="utf-8"?>
<!-- Generator: Adobe Illustrator 15.0.0, SVG Export Plug-In . SVG Version: 6.00 Build 0)  -->
<!DOCTYPE svg PUBLIC "-//W3C//DTD SVG 1.1//EN" "http://www.w3.org/Graphics/SVG/1.1/DTD/svg11.dtd">
<svg version="1.1" id="Layer_1" xmlns="http://www.w3.org/2000/svg" xmlns:xlink="http://www.w3.org/1999/xlink" x="0px" y="0px"
	 width="22.55px" height="22.55px" viewBox="0 0 22.55 22.55" enable-background="new 0 0 22.55 22.55" xml:space="preserve">
<path fill="#FFFFFF" d="M97.999-0.004c3.615,0,6.547,2.931,6.547,6.547v9.455c0,3.616-2.932,6.548-6.547,6.548h-9.455
	c-3.617,0-6.549-2.932-6.549-6.548V6.543c0-3.616,2.932-6.547,6.549-6.547H97.999 M86.987,17.237h2.668V8.824h-2.668V17.237z
	 M91.538,17.237h2.668v-4.756c0-0.837,0.783-1.641,1.582-1.641c0.859,0,1.387,0.804,1.387,1.641v4.756h2.668v-5.544
	c0-2.345-1.975-3.116-3.391-3.116c-1.018,0-1.613,0.476-2.217,1.132h-0.029l0.01-1.132h-2.678V17.237z M89.752,6.737
	c0-0.791-0.641-1.433-1.432-1.433s-1.432,0.642-1.432,1.433s0.641,1.432,1.432,1.432S89.752,7.528,89.752,6.737"/>
<g>
	<defs>
		<path id="SVGID_1_" d="M56.844,0c3.615,0,6.547,2.931,6.547,6.547v9.456c0,3.615-2.932,6.547-6.547,6.547H47.39
			c-3.617,0-6.548-2.932-6.548-6.547V6.547C40.842,2.931,43.772,0,47.39,0H56.844"/>
	</defs>
	<clipPath id="SVGID_2_">
		<use xlink:href="#SVGID_1_"  overflow="visible"/>
	</clipPath>
	<path clip-path="url(#SVGID_2_)" fill="#FFFFFF" d="M64.151,4.228v14.093c0,1.165-0.441,2.161-1.324,2.988
		c-0.883,0.826-1.947,1.24-3.189,1.24h-3.51c-0.168,0-0.295-0.005-0.385-0.015c-0.088-0.01-0.189-0.034-0.305-0.073
		s-0.199-0.11-0.25-0.213c-0.053-0.104-0.078-0.237-0.078-0.404v-3.508c0-0.949-0.273-1.645-0.816-2.086
		c0.596-0.059,1.131-0.146,1.607-0.264c0.475-0.117,0.965-0.309,1.473-0.572c0.506-0.265,0.93-0.59,1.27-0.977
		c0.338-0.387,0.615-0.9,0.83-1.541c0.213-0.642,0.32-1.378,0.32-2.21c0-1.184-0.412-2.192-1.238-3.024
		c0.387-0.891,0.346-1.889-0.125-2.995c-0.291-0.088-0.715-0.034-1.27,0.162c-0.553,0.196-1.033,0.411-1.441,0.646l-0.594,0.352
		c-0.973-0.254-1.975-0.382-3.01-0.382c-1.033,0-2.037,0.127-3.008,0.382c-0.168-0.107-0.389-0.24-0.666-0.396
		c-0.277-0.156-0.713-0.345-1.309-0.565s-1.045-0.286-1.348-0.198c-0.459,1.106-0.496,2.104-0.109,2.995
		c-0.824,0.832-1.238,1.84-1.238,3.024c0,0.832,0.107,1.566,0.322,2.202c0.213,0.637,0.488,1.15,0.822,1.541
		c0.334,0.393,0.754,0.72,1.262,0.984c0.506,0.264,0.996,0.455,1.473,0.572c0.475,0.117,1.01,0.205,1.605,0.264
		c-0.418,0.354-0.674,0.857-0.768,1.513c-0.219,0.099-0.455,0.171-0.705,0.22c-0.25,0.05-0.549,0.074-0.893,0.074
		c-0.346,0-0.688-0.105-1.027-0.316c-0.34-0.21-0.629-0.516-0.869-0.917c-0.199-0.313-0.451-0.567-0.76-0.763
		c-0.309-0.196-0.566-0.314-0.775-0.354l-0.314-0.043c-0.219,0-0.371,0.021-0.453,0.065c-0.084,0.044-0.109,0.101-0.078,0.169
		s0.078,0.137,0.141,0.205s0.131,0.127,0.203,0.177l0.109,0.073c0.23,0.098,0.457,0.283,0.682,0.559
		c0.225,0.273,0.389,0.523,0.494,0.748l0.156,0.338c0.137,0.371,0.365,0.672,0.689,0.902s0.674,0.377,1.051,0.441
		c0.375,0.063,0.738,0.098,1.088,0.102c0.35,0.006,0.641-0.012,0.869-0.051l0.361-0.059c0,0.371,0.002,0.875,0.008,1.512
		s0.008,0.969,0.008,0.998c0,0.216-0.057,0.38-0.172,0.492c-0.115,0.113-0.23,0.176-0.346,0.191
		c-0.115,0.014-0.287,0.021-0.516,0.021h-3.512c-1.242,0-2.305-0.414-3.188-1.24c-0.883-0.827-1.324-1.823-1.324-2.988V4.228
		c0-1.165,0.441-2.161,1.324-2.988C42.289,0.414,43.352,0,44.594,0h15.043c1.242,0,2.307,0.414,3.189,1.24
		C63.709,2.067,64.151,3.063,64.151,4.228z"/>
</g>
<g>
	<defs>
		<path id="SVGID_3_" d="M16.003,0c3.615,0,6.547,2.931,6.547,6.547v9.456c0,3.615-2.932,6.547-6.547,6.547H6.548
			C2.931,22.55,0,19.618,0,16.003V6.547C0,2.931,2.931,0,6.548,0H16.003"/>
	</defs>
	<clipPath id="SVGID_4_">
		<use xlink:href="#SVGID_3_"  overflow="visible"/>
	</clipPath>
	<g clip-path="url(#SVGID_4_)">
		<g>
			<defs>
				<path id="SVGID_5_" d="M6.381,11.274c0,2.535,2.057,4.581,4.581,4.581c2.533,0,4.59-2.046,4.59-4.581
					c0-2.533-2.057-4.588-4.59-4.588C8.438,6.686,6.381,8.741,6.381,11.274"/>
			</defs>
			<use xlink:href="#SVGID_5_"  overflow="visible" fill="#FFFFFF"/>
			<clipPath id="SVGID_6_">
				<use xlink:href="#SVGID_5_"  overflow="visible"/>
			</clipPath>
			<rect x="6.381" y="6.686" clip-path="url(#SVGID_6_)" fill="#FFFFFF" width="9.171" height="9.169"/>
		</g>
		<g>
			<defs>
				<path id="SVGID_7_" d="M3.904,11.274c0-3.901,3.156-7.065,7.058-7.065c3.9,0,7.066,3.165,7.066,7.065
					c0,3.902-3.166,7.058-7.066,7.058C7.061,18.332,3.904,15.177,3.904,11.274 M16.651,3.934c0-0.915,0.746-1.651,1.652-1.651
					c0.914,0,1.651,0.737,1.651,1.651c0,0.907-0.737,1.651-1.651,1.651C17.397,5.585,16.651,4.84,16.651,3.934 M5.411,0.081
					c-1.346,0.056-2.074,0.284-2.559,0.47c-0.641,0.25-1.102,0.551-1.578,1.027C0.789,2.064,0.497,2.517,0.247,3.164
					C0.06,3.65-0.167,4.378-0.231,5.714c-0.065,1.45-0.08,1.886-0.08,5.561c0,3.675,0.015,4.104,0.08,5.553
					c0.064,1.344,0.291,2.071,0.479,2.557c0.25,0.641,0.542,1.102,1.027,1.579c0.477,0.485,0.938,0.784,1.578,1.028
					c0.484,0.193,1.213,0.412,2.559,0.477c1.448,0.064,1.885,0.082,5.551,0.082c3.674,0,4.111-0.018,5.561-0.082
					c1.342-0.064,2.072-0.283,2.549-0.477c0.647-0.244,1.102-0.543,1.588-1.028c0.477-0.478,0.776-0.938,1.026-1.579
					c0.187-0.485,0.413-1.213,0.47-2.557c0.074-1.449,0.082-1.878,0.082-5.553c0-3.674-0.008-4.111-0.082-5.561
					c-0.057-1.335-0.283-2.063-0.47-2.55c-0.25-0.647-0.55-1.1-1.026-1.586c-0.486-0.477-0.94-0.777-1.588-1.027
					c-0.477-0.186-1.207-0.414-2.549-0.47C15.073,0.016,14.636,0,10.962,0C7.296,0,6.859,0.016,5.411,0.081"/>
			</defs>
			<use xlink:href="#SVGID_7_"  overflow="visible" fill="#FFFFFF"/>
			<clipPath id="SVGID_8_">
				<use xlink:href="#SVGID_7_"  overflow="visible"/>
			</clipPath>
			<rect x="-0.312" clip-path="url(#SVGID_8_)" fill="#FFFFFF" width="22.549" height="22.55"/>
		</g>
	</g>
</g>
</svg>
