<?xml version="1.0" encoding="utf-8"?>
<!-- Generator: Adobe Illustrator 15.0.0, SVG Export Plug-In . SVG Version: 6.00 Build 0)  -->
<!DOCTYPE svg PUBLIC "-//W3C//DTD SVG 1.1//EN" "http://www.w3.org/Graphics/SVG/1.1/DTD/svg11.dtd">
<svg version="1.1" id="Layer_1" xmlns="http://www.w3.org/2000/svg" xmlns:xlink="http://www.w3.org/1999/xlink" x="0px" y="0px"
	 width="25px" height="25px" viewBox="0 0 25 25" enable-background="new 0 0 25 25" xml:space="preserve">
<path fill="#FF4D43" d="M207.047,88.871c-3.188,0-6.37-0.021-9.544-0.068c-2.118-0.031-4.237-0.051-6.356-0.071
	c-6.76-0.064-13.75-0.131-20.66-0.58c-7.698-0.501-18.243-1.187-26.941-4.721c-16.974-6.896-17.788-27.206-18.326-40.646
	c-0.413-10.288-0.396-20.506-0.334-31.838c0.007-1.27,0.006-2.565,0.005-3.878c-0.01-11.128-0.021-23.742,4.857-34.206
	c6.394-13.717,19.976-15.903,33.339-16.967c10.035-0.799,20.223-1.026,30.074-1.245c19.123-0.426,38.888-0.865,58.441-0.119
	c10.42,0.399,19.885,1.09,28.936,2.115c7.932,0.897,16.895,2.46,22.868,9.694c6.393,7.738,7.655,17.948,8.473,28.609
	c0.159,2.095,0.276,4.239,0.355,6.556c0.178,5.181,0.14,10.418,0.104,15.483c-0.018,2.36-0.034,4.72-0.03,7.078
	c0.003,1.642,0.015,3.286,0.025,4.932c0.063,8.491,0.125,17.273-1.123,25.95c-1.672,11.62-5.043,24.066-17.361,28.269
	c-12.636,4.312-25.957,4.573-38.84,4.826l-1.096,0.022c-4.263,0.084-8.525,0.183-12.789,0.281
	C229.952,88.606,218.482,88.871,207.047,88.871 M228.52-38.871c-11.827,0-23.631,0.263-35.196,0.52
	c-9.761,0.217-19.846,0.441-29.682,1.225c-12.227,0.973-22.736,2.619-27.551,12.946c-4.221,9.056-4.21,20.843-4.201,31.243
	c0.001,1.328,0.002,2.638-0.005,3.922c-0.062,11.246-0.079,21.379,0.328,31.519c0.522,13.029,1.172,29.243,13.967,34.441
	c7.649,3.108,17.54,3.752,24.762,4.222c6.716,0.437,13.607,0.502,20.271,0.565c2.132,0.02,4.263,0.04,6.394,0.072
	c14.434,0.215,29.136-0.126,43.354-0.455c4.271-0.099,8.542-0.198,12.813-0.282l1.098-0.022c12.346-0.242,25.112-0.492,36.717-4.452
	c8.72-2.975,11.254-12.64,12.693-22.641c1.173-8.156,1.111-16.67,1.051-24.903c-0.011-1.658-0.022-3.316-0.025-4.971
	c-0.004-2.379,0.013-4.759,0.03-7.139c0.036-4.994,0.073-10.157-0.1-15.193c-0.076-2.219-0.187-4.267-0.34-6.262
	c-0.728-9.494-1.802-18.526-6.889-24.685c-4.313-5.223-11.386-6.419-18.26-7.196c-8.876-1.005-18.17-1.684-28.415-2.076
	C243.759-38.762,236.135-38.871,228.52-38.871"/>
<path fill="#FF4D43" d="M247.059,21.297c-15.76-9.257-31.176-18.311-46.741-27.453v54.919
	C215.934,39.587,231.355,30.526,247.059,21.297"/>
<path fill="#FF4D43" d="M306.611,212.964c0,48.601-39.399,88-88,88c-48.602,0-88-39.399-88-88c0-48.602,39.398-88,88-88
	C267.211,124.964,306.611,164.362,306.611,212.964"/>
<path fill="#FFFFFF" d="M278.006,199.866c-0.048-1.409-0.121-2.817-0.229-4.224c-0.458-5.963-1.122-12.792-5.062-17.562
	c-3.372-4.082-8.595-5.005-13.553-5.566c-6.277-0.71-12.585-1.139-18.898-1.38c-12.785-0.488-25.584-0.205-38.371,0.079
	c-6.569,0.146-13.143,0.292-19.692,0.813c-8.044,0.641-16.317,1.819-20.064,9.857c-3.363,7.215-2.945,16.375-2.988,24.137
	c-0.038,6.96-0.061,13.923,0.218,20.878c0.362,9.025,0.898,20.783,10.642,24.742c5.201,2.113,11.481,2.585,17.037,2.946
	c5.889,0.383,11.792,0.337,17.688,0.425c12.368,0.184,24.733-0.241,37.097-0.486c8.588-0.17,17.402-0.267,25.621-3.071
	c7.093-2.42,8.943-10.107,9.902-16.775c0.953-6.626,0.71-13.349,0.699-20.021C278.045,209.73,278.176,204.793,278.006,199.866
	 M206.555,230.932v-36.194c10.258,6.025,20.418,11.993,30.805,18.093C227.009,218.911,216.846,224.884,206.555,230.932"/>
<path fill="#FF4D43" d="M12.5,304.963c-50.729,0-92-41.271-92-92c0-50.728,41.271-91.999,92-91.999s92,41.271,92,91.999
	C104.5,263.692,63.229,304.963,12.5,304.963 M12.5,128.964c-46.317,0-84,37.682-84,83.999s37.683,84,84,84s84-37.683,84-84
	S58.817,128.964,12.5,128.964"/>
<path fill="#FF4D43" d="M71.897,199.866c-0.049-1.409-0.121-2.817-0.229-4.224c-0.457-5.963-1.122-12.792-5.062-17.562
	c-3.371-4.082-8.594-5.005-13.552-5.566c-6.278-0.71-12.586-1.139-18.899-1.38c-12.785-0.488-25.584-0.205-38.371,0.079
	c-6.569,0.146-13.143,0.292-19.693,0.813c-8.043,0.641-16.317,1.819-20.063,9.857c-3.363,7.215-2.946,16.375-2.989,24.137
	c-0.038,6.96-0.061,13.923,0.218,20.878c0.362,9.025,0.898,20.783,10.641,24.742c5.202,2.113,11.482,2.585,17.037,2.946
	c5.889,0.383,11.792,0.337,17.689,0.425c12.368,0.184,24.733-0.241,37.097-0.486c8.587-0.17,17.402-0.267,25.62-3.071
	c7.093-2.42,8.944-10.107,9.903-16.775c0.953-6.626,0.71-13.349,0.7-20.021C71.936,209.73,72.067,204.793,71.897,199.866
	 M0.445,230.932v-36.194c10.258,6.025,20.418,11.993,30.805,18.093C20.9,218.911,10.737,224.884,0.445,230.932"/>
<g>
	<defs>
		<path id="SVGID_1_" d="M17.742,0C21.75,0,25,3.25,25,7.259v10.483C25,21.75,21.75,25,17.742,25H7.259C3.249,25,0,21.75,0,17.742
			V7.259C0,3.25,3.249,0,7.259,0H17.742"/>
	</defs>
	<clipPath id="SVGID_2_">
		<use xlink:href="#SVGID_1_"  overflow="visible"/>
	</clipPath>
	<rect x="11.894" y="-7.246" clip-path="url(#SVGID_2_)" fill="none" width="98.775" height="98.775"/>
	<g clip-path="url(#SVGID_2_)">
		<defs>
			<rect id="SVGID_3_" x="11.894" y="-7.246" width="98.775" height="98.775"/>
		</defs>
		<clipPath id="SVGID_4_">
			<use xlink:href="#SVGID_3_"  overflow="visible"/>
		</clipPath>
		<path clip-path="url(#SVGID_4_)" fill="#454258" d="M47.668,86.024c-0.048,0-0.085,0.017-0.112,0.05s-0.039,0.083-0.039,0.149
			v0.473c-0.061-0.066-0.122-0.115-0.186-0.146c-0.063-0.032-0.142-0.048-0.233-0.048c-0.159,0-0.288,0.056-0.386,0.168
			c-0.098,0.111-0.146,0.268-0.146,0.468c0,0.095,0.013,0.183,0.037,0.264c0.024,0.082,0.061,0.152,0.108,0.212
			s0.104,0.106,0.169,0.139c0.065,0.033,0.136,0.049,0.213,0.049c0.058,0,0.111-0.008,0.16-0.024
			c0.049-0.016,0.094-0.04,0.137-0.071c0.042-0.03,0.084-0.071,0.127-0.12v0.031c0,0.059,0.014,0.104,0.042,0.136
			c0.029,0.032,0.065,0.047,0.108,0.047c0.044,0,0.081-0.015,0.109-0.046c0.028-0.03,0.042-0.076,0.042-0.137v-1.412
			c0-0.06-0.013-0.105-0.04-0.136C47.754,86.04,47.716,86.024,47.668,86.024 M47.458,87.376c-0.027,0.06-0.065,0.105-0.111,0.134
			c-0.047,0.029-0.098,0.044-0.155,0.044c-0.055,0-0.106-0.015-0.153-0.046c-0.047-0.031-0.084-0.077-0.111-0.137
			c-0.026-0.062-0.04-0.135-0.04-0.222c0-0.082,0.013-0.154,0.038-0.217c0.025-0.062,0.062-0.11,0.107-0.143
			c0.046-0.033,0.099-0.049,0.157-0.049c0.057,0,0.108,0.016,0.155,0.048s0.085,0.079,0.112,0.141
			c0.028,0.062,0.042,0.135,0.042,0.22C47.5,87.239,47.486,87.315,47.458,87.376"/>
		<path clip-path="url(#SVGID_4_)" fill="#454258" d="M49.123,87.194c0.046-0.024,0.069-0.076,0.069-0.157
			c0-0.086-0.022-0.172-0.066-0.255c-0.045-0.083-0.111-0.152-0.201-0.205s-0.197-0.079-0.321-0.079
			c-0.097,0-0.185,0.015-0.263,0.046c-0.079,0.031-0.146,0.075-0.2,0.133c-0.054,0.058-0.095,0.127-0.123,0.208
			c-0.027,0.081-0.042,0.168-0.042,0.263c0,0.201,0.057,0.36,0.171,0.477c0.114,0.117,0.274,0.176,0.479,0.176
			c0.09,0,0.169-0.012,0.239-0.035c0.069-0.024,0.126-0.053,0.172-0.088c0.046-0.036,0.08-0.073,0.103-0.112
			c0.023-0.039,0.034-0.072,0.034-0.101c0-0.033-0.01-0.058-0.031-0.077c-0.02-0.018-0.046-0.027-0.079-0.027
			c-0.031,0-0.054,0.007-0.071,0.021c-0.04,0.037-0.072,0.067-0.097,0.089c-0.025,0.022-0.053,0.042-0.083,0.062
			c-0.03,0.019-0.06,0.033-0.092,0.042c-0.031,0.009-0.066,0.013-0.104,0.013c-0.057,0-0.109-0.014-0.156-0.042
			c-0.048-0.028-0.086-0.07-0.114-0.125s-0.043-0.12-0.044-0.192h0.626C49.012,87.229,49.077,87.218,49.123,87.194 M48.302,87.048
			c0.011-0.108,0.042-0.189,0.094-0.245c0.051-0.055,0.116-0.083,0.196-0.083c0.083,0,0.15,0.027,0.202,0.082
			c0.051,0.054,0.081,0.136,0.088,0.246H48.302z"/>
		<path clip-path="url(#SVGID_4_)" fill="#454258" d="M50.195,87.107c-0.063-0.033-0.144-0.063-0.244-0.086
			c-0.083-0.021-0.149-0.038-0.197-0.052c-0.048-0.014-0.085-0.032-0.114-0.053s-0.042-0.049-0.042-0.083
			c0-0.037,0.019-0.068,0.058-0.092c0.038-0.024,0.086-0.037,0.144-0.037c0.057,0,0.102,0.009,0.134,0.028
			c0.033,0.019,0.062,0.044,0.086,0.075c0.03,0.038,0.056,0.065,0.079,0.084c0.022,0.019,0.051,0.028,0.084,0.028
			c0.045,0,0.08-0.012,0.104-0.035s0.037-0.053,0.037-0.09c0-0.034-0.012-0.068-0.035-0.103s-0.057-0.067-0.101-0.096
			c-0.043-0.029-0.099-0.052-0.165-0.069C49.958,86.509,49.883,86.5,49.8,86.5c-0.105,0-0.195,0.017-0.27,0.051
			c-0.075,0.034-0.132,0.08-0.17,0.137s-0.058,0.118-0.058,0.182c0,0.072,0.021,0.132,0.063,0.182
			c0.041,0.049,0.097,0.089,0.166,0.119c0.069,0.03,0.159,0.059,0.269,0.086c0.098,0.024,0.168,0.048,0.211,0.074
			c0.042,0.026,0.063,0.066,0.063,0.123c0,0.037-0.021,0.07-0.062,0.098c-0.041,0.029-0.093,0.043-0.157,0.043
			c-0.079,0-0.142-0.014-0.188-0.042c-0.045-0.028-0.085-0.071-0.118-0.128c-0.016-0.03-0.034-0.053-0.051-0.069
			c-0.019-0.016-0.044-0.024-0.077-0.024c-0.039,0-0.07,0.012-0.095,0.038c-0.025,0.025-0.038,0.055-0.038,0.09
			c0,0.053,0.02,0.106,0.059,0.159s0.1,0.097,0.182,0.132s0.181,0.053,0.295,0.053c0.121,0,0.223-0.016,0.307-0.049
			c0.083-0.032,0.147-0.08,0.19-0.143c0.043-0.063,0.065-0.138,0.065-0.227c0-0.059-0.017-0.111-0.049-0.157
			C50.306,87.181,50.258,87.141,50.195,87.107"/>
		<path clip-path="url(#SVGID_4_)" fill="#454258" d="M50.71,86.5c-0.047,0-0.085,0.016-0.114,0.048
			c-0.03,0.032-0.044,0.08-0.044,0.143v0.916c0,0.062,0.014,0.11,0.044,0.144c0.029,0.034,0.067,0.05,0.114,0.05
			s0.085-0.017,0.116-0.049c0.03-0.033,0.045-0.082,0.045-0.145v-0.925c0-0.057-0.015-0.102-0.045-0.134
			C50.796,86.516,50.757,86.5,50.71,86.5"/>
		<path clip-path="url(#SVGID_4_)" fill="#454258" d="M50.714,86.038c-0.043,0-0.081,0.015-0.113,0.044
			c-0.033,0.03-0.049,0.067-0.049,0.112c0,0.05,0.016,0.089,0.047,0.116c0.032,0.027,0.07,0.041,0.114,0.041
			c0.042,0,0.08-0.014,0.111-0.042c0.031-0.027,0.047-0.066,0.047-0.115c0-0.051-0.016-0.089-0.048-0.116
			C50.792,86.052,50.755,86.038,50.714,86.038"/>
		<path clip-path="url(#SVGID_4_)" fill="#454258" d="M52.121,86.5c-0.043,0-0.078,0.015-0.105,0.045
			c-0.027,0.031-0.041,0.074-0.041,0.129v0.043c-0.057-0.074-0.119-0.128-0.185-0.164c-0.067-0.035-0.145-0.052-0.236-0.052
			c-0.076,0-0.146,0.014-0.208,0.041c-0.064,0.027-0.12,0.067-0.168,0.12s-0.085,0.119-0.112,0.196
			c-0.026,0.078-0.039,0.165-0.039,0.26c0,0.129,0.021,0.243,0.064,0.341c0.042,0.099,0.104,0.175,0.185,0.23
			s0.174,0.082,0.281,0.082c0.089,0,0.166-0.018,0.23-0.054c0.065-0.036,0.122-0.089,0.171-0.158
			c-0.001,0.105-0.004,0.181-0.007,0.229s-0.014,0.092-0.032,0.133c-0.019,0.042-0.051,0.074-0.097,0.097
			c-0.046,0.023-0.109,0.035-0.192,0.035c-0.041,0-0.077-0.004-0.108-0.011c-0.031-0.007-0.058-0.019-0.08-0.034
			c-0.022-0.015-0.042-0.034-0.061-0.055c-0.018-0.021-0.036-0.043-0.053-0.064c-0.035-0.042-0.076-0.062-0.123-0.062
			c-0.037,0-0.07,0.012-0.096,0.037c-0.027,0.024-0.041,0.056-0.041,0.095c0,0.052,0.024,0.102,0.071,0.151s0.114,0.088,0.2,0.12
			c0.087,0.031,0.186,0.046,0.295,0.046c0.121,0,0.221-0.012,0.302-0.036c0.081-0.024,0.146-0.062,0.196-0.111
			c0.05-0.05,0.086-0.113,0.109-0.19c0.023-0.077,0.035-0.168,0.035-0.274v-0.93c0-0.076-0.011-0.134-0.031-0.174
			C52.223,86.521,52.183,86.5,52.121,86.5 M51.918,87.363c-0.03,0.057-0.068,0.1-0.116,0.129c-0.047,0.028-0.098,0.043-0.15,0.043
			c-0.09,0-0.163-0.033-0.22-0.1c-0.057-0.066-0.085-0.165-0.085-0.294c0-0.128,0.027-0.227,0.082-0.297
			c0.056-0.069,0.128-0.104,0.22-0.104c0.094,0,0.169,0.036,0.227,0.109s0.086,0.174,0.086,0.305
			C51.962,87.235,51.947,87.305,51.918,87.363"/>
		<path clip-path="url(#SVGID_4_)" fill="#454258" d="M53.573,86.711c-0.033-0.067-0.083-0.119-0.149-0.155
			c-0.066-0.037-0.142-0.055-0.227-0.055c-0.086,0-0.163,0.018-0.23,0.052c-0.067,0.035-0.128,0.089-0.185,0.164v-0.039
			c0-0.038-0.007-0.071-0.021-0.097s-0.031-0.046-0.054-0.06c-0.023-0.014-0.049-0.02-0.077-0.02c-0.046,0-0.082,0.015-0.108,0.045
			c-0.027,0.03-0.04,0.076-0.04,0.137v0.925c0,0.063,0.015,0.111,0.045,0.145c0.029,0.034,0.067,0.05,0.113,0.05
			c0.048,0,0.087-0.016,0.117-0.049c0.029-0.032,0.045-0.081,0.045-0.146v-0.401c0-0.13,0.008-0.219,0.023-0.267
			c0.022-0.059,0.056-0.106,0.104-0.141c0.046-0.034,0.099-0.051,0.156-0.051c0.088,0,0.146,0.028,0.175,0.084
			c0.029,0.056,0.044,0.137,0.044,0.242v0.533c0,0.063,0.014,0.111,0.044,0.145c0.03,0.034,0.068,0.05,0.116,0.05
			c0.047,0,0.085-0.017,0.114-0.049s0.044-0.082,0.044-0.146v-0.595c0-0.071-0.003-0.128-0.009-0.174
			C53.608,86.793,53.594,86.75,53.573,86.711"/>
		<path clip-path="url(#SVGID_4_)" fill="#454258" d="M54.925,87.194c0.046-0.024,0.069-0.076,0.069-0.157
			c0-0.086-0.022-0.172-0.067-0.255c-0.044-0.083-0.111-0.152-0.201-0.205c-0.089-0.053-0.197-0.079-0.321-0.079
			c-0.097,0-0.184,0.015-0.263,0.046c-0.079,0.031-0.146,0.075-0.199,0.133c-0.055,0.058-0.095,0.127-0.124,0.208
			c-0.028,0.081-0.042,0.168-0.042,0.263c0,0.201,0.058,0.36,0.171,0.477c0.114,0.117,0.274,0.176,0.48,0.176
			c0.09,0,0.169-0.012,0.238-0.035c0.069-0.024,0.126-0.053,0.172-0.088c0.046-0.036,0.08-0.073,0.103-0.112
			c0.023-0.039,0.034-0.072,0.034-0.101c0-0.033-0.01-0.058-0.03-0.077c-0.021-0.018-0.047-0.027-0.08-0.027
			c-0.031,0-0.054,0.007-0.07,0.021c-0.04,0.037-0.073,0.067-0.097,0.089c-0.025,0.022-0.053,0.042-0.082,0.062
			c-0.03,0.019-0.061,0.033-0.092,0.042c-0.032,0.009-0.067,0.013-0.105,0.013c-0.057,0-0.109-0.014-0.156-0.042
			s-0.085-0.07-0.114-0.125s-0.043-0.12-0.044-0.192h0.626C54.814,87.229,54.879,87.218,54.925,87.194 M54.104,87.048
			c0.012-0.108,0.042-0.189,0.093-0.245s0.117-0.083,0.197-0.083c0.083,0,0.151,0.027,0.202,0.082
			c0.051,0.054,0.081,0.136,0.089,0.246H54.104z"/>
		<path clip-path="url(#SVGID_4_)" fill="#454258" d="M56.186,86.024c-0.048,0-0.085,0.017-0.111,0.05
			c-0.026,0.034-0.04,0.083-0.04,0.149v0.473c-0.06-0.066-0.121-0.115-0.185-0.146c-0.063-0.032-0.141-0.048-0.233-0.048
			c-0.159,0-0.288,0.056-0.386,0.168c-0.098,0.111-0.146,0.268-0.146,0.468c0,0.095,0.012,0.183,0.037,0.264
			c0.024,0.082,0.061,0.152,0.108,0.212s0.104,0.106,0.169,0.139c0.065,0.033,0.137,0.049,0.213,0.049
			c0.058,0,0.111-0.008,0.16-0.024s0.094-0.04,0.136-0.071c0.042-0.03,0.084-0.071,0.127-0.12v0.031
			c0,0.059,0.015,0.104,0.043,0.136c0.029,0.032,0.065,0.047,0.108,0.047c0.045,0,0.081-0.015,0.109-0.046
			c0.028-0.03,0.042-0.076,0.042-0.137v-1.412c0-0.06-0.013-0.105-0.04-0.136C56.272,86.04,56.235,86.024,56.186,86.024
			 M55.976,87.376c-0.028,0.06-0.065,0.105-0.111,0.134c-0.047,0.029-0.098,0.044-0.154,0.044c-0.056,0-0.106-0.015-0.153-0.046
			c-0.047-0.031-0.084-0.077-0.111-0.137c-0.026-0.062-0.04-0.135-0.04-0.222c0-0.082,0.012-0.154,0.038-0.217
			c0.025-0.062,0.061-0.11,0.107-0.143c0.046-0.033,0.099-0.049,0.157-0.049c0.056,0,0.107,0.016,0.155,0.048
			c0.047,0.032,0.084,0.079,0.112,0.141c0.027,0.062,0.042,0.135,0.042,0.22C56.018,87.239,56.003,87.315,55.976,87.376"/>
		<path clip-path="url(#SVGID_4_)" fill="#454258" d="M58.04,86.578c-0.08-0.05-0.173-0.076-0.28-0.076
			c-0.092,0-0.169,0.017-0.232,0.05c-0.063,0.033-0.124,0.082-0.185,0.144v-0.489c0-0.059-0.013-0.104-0.04-0.135
			c-0.026-0.032-0.064-0.047-0.113-0.047c-0.047,0-0.084,0.017-0.11,0.05s-0.039,0.082-0.039,0.147v1.397
			c0,0.061,0.013,0.106,0.041,0.137c0.027,0.031,0.063,0.046,0.108,0.046c0.045,0,0.081-0.015,0.11-0.046
			c0.028-0.031,0.043-0.076,0.043-0.137v-0.031c0.035,0.041,0.063,0.071,0.085,0.091s0.048,0.04,0.078,0.059
			c0.031,0.02,0.067,0.035,0.111,0.046s0.089,0.018,0.139,0.018c0.08,0,0.154-0.016,0.221-0.049
			c0.066-0.032,0.124-0.078,0.171-0.138c0.047-0.059,0.083-0.129,0.107-0.21c0.024-0.081,0.037-0.169,0.037-0.267
			c0-0.131-0.022-0.245-0.066-0.341C58.181,86.702,58.12,86.629,58.04,86.578 M57.883,87.449c-0.058,0.07-0.127,0.105-0.208,0.105
			c-0.095,0-0.171-0.034-0.229-0.103c-0.058-0.068-0.087-0.166-0.087-0.294c0-0.086,0.014-0.162,0.041-0.224
			c0.027-0.063,0.064-0.111,0.112-0.145c0.048-0.033,0.103-0.049,0.163-0.049c0.06,0,0.111,0.017,0.156,0.049
			c0.044,0.033,0.079,0.081,0.103,0.142c0.024,0.061,0.037,0.134,0.037,0.218C57.971,87.279,57.941,87.379,57.883,87.449"/>
		<path clip-path="url(#SVGID_4_)" fill="#454258" d="M59.411,86.52c-0.022-0.013-0.045-0.019-0.07-0.019
			c-0.034,0-0.06,0.005-0.078,0.018c-0.019,0.011-0.036,0.034-0.052,0.068c-0.017,0.034-0.035,0.08-0.056,0.139l-0.257,0.733
			l-0.271-0.788c-0.018-0.055-0.039-0.097-0.062-0.126S58.508,86.5,58.462,86.5c-0.027,0-0.052,0.007-0.077,0.021
			c-0.025,0.014-0.044,0.033-0.058,0.056s-0.021,0.049-0.021,0.076c0,0.026,0.012,0.067,0.036,0.125l0.394,0.992l-0.03,0.072
			c-0.021,0.052-0.041,0.092-0.058,0.119c-0.017,0.027-0.036,0.046-0.057,0.057s-0.049,0.017-0.086,0.017
			c-0.015,0-0.032-0.002-0.053-0.007c-0.017-0.005-0.033-0.007-0.051-0.007c-0.043,0-0.077,0.01-0.099,0.03
			c-0.022,0.02-0.033,0.048-0.033,0.085c0,0.054,0.023,0.091,0.07,0.111c0.046,0.021,0.117,0.03,0.211,0.03
			c0.096,0,0.172-0.014,0.229-0.044c0.057-0.029,0.102-0.071,0.136-0.126c0.035-0.055,0.07-0.13,0.106-0.226l0.417-1.093
			c0.01-0.028,0.019-0.056,0.025-0.083c0.008-0.028,0.012-0.049,0.016-0.063c0-0.024-0.006-0.047-0.019-0.069
			C59.451,86.55,59.433,86.533,59.411,86.52"/>
		<path clip-path="url(#SVGID_4_)" fill="#454258" d="M63.836,86.023c-0.105,0-0.188,0.014-0.249,0.04
			c-0.061,0.027-0.104,0.07-0.129,0.129c-0.026,0.06-0.038,0.139-0.038,0.239v0.096h-0.076c-0.107,0-0.161,0.038-0.161,0.115
			c0,0.034,0.013,0.063,0.039,0.083c0.025,0.022,0.062,0.032,0.11,0.032h0.088v0.849c0,0.063,0.015,0.111,0.045,0.144
			c0.03,0.034,0.068,0.05,0.113,0.05c0.048,0,0.086-0.017,0.116-0.05c0.031-0.033,0.046-0.082,0.046-0.144v-0.849h0.078
			c0.057,0,0.102-0.007,0.134-0.021c0.033-0.014,0.049-0.047,0.049-0.099c0-0.074-0.061-0.111-0.183-0.111h-0.078v-0.076
			c0-0.063,0.008-0.112,0.023-0.146c0.018-0.034,0.055-0.051,0.112-0.051c0.021,0,0.047,0.002,0.077,0.007
			c0.031,0.005,0.053,0.007,0.065,0.007c0.027,0,0.05-0.011,0.069-0.032s0.029-0.046,0.029-0.076
			C64.117,86.068,64.024,86.023,63.836,86.023"/>
		<path clip-path="url(#SVGID_4_)" fill="#454258" d="M64.855,86.55c-0.063-0.034-0.127-0.051-0.195-0.051
			c-0.067,0-0.12,0.017-0.161,0.051c-0.04,0.034-0.079,0.083-0.117,0.149c-0.003-0.066-0.016-0.115-0.04-0.149
			c-0.023-0.034-0.062-0.051-0.115-0.051c-0.104,0-0.156,0.072-0.156,0.216v0.892c0,0.063,0.016,0.112,0.045,0.145
			c0.029,0.033,0.067,0.05,0.114,0.05s0.085-0.016,0.116-0.049c0.03-0.032,0.046-0.081,0.046-0.146v-0.268
			c0-0.096,0.002-0.178,0.009-0.245c0.006-0.066,0.018-0.125,0.033-0.173c0.017-0.048,0.04-0.084,0.07-0.109
			c0.029-0.024,0.067-0.037,0.114-0.037c0.034,0,0.074,0.007,0.119,0.021c0.045,0.015,0.073,0.022,0.086,0.022
			c0.031,0,0.06-0.013,0.087-0.039c0.026-0.025,0.04-0.058,0.04-0.096C64.951,86.628,64.919,86.584,64.855,86.55"/>
		<path clip-path="url(#SVGID_4_)" fill="#454258" d="M66.058,87.193c0.046-0.024,0.069-0.076,0.069-0.156
			c0-0.087-0.022-0.172-0.067-0.256c-0.044-0.084-0.111-0.152-0.201-0.204c-0.089-0.053-0.196-0.08-0.321-0.08
			c-0.097,0-0.184,0.015-0.263,0.046s-0.146,0.075-0.199,0.133c-0.055,0.058-0.096,0.127-0.123,0.208
			c-0.028,0.081-0.043,0.169-0.043,0.264c0,0.201,0.058,0.36,0.172,0.478c0.113,0.117,0.273,0.176,0.479,0.176
			c0.09,0,0.17-0.012,0.238-0.036c0.069-0.023,0.127-0.053,0.173-0.088c0.046-0.036,0.08-0.073,0.104-0.112
			c0.021-0.039,0.032-0.072,0.032-0.101c0-0.033-0.009-0.058-0.029-0.077c-0.021-0.018-0.047-0.027-0.08-0.027
			c-0.03,0-0.054,0.008-0.07,0.021c-0.04,0.038-0.073,0.067-0.098,0.089c-0.025,0.022-0.052,0.043-0.082,0.062
			c-0.029,0.019-0.061,0.034-0.092,0.042c-0.032,0.009-0.066,0.014-0.105,0.014c-0.057,0-0.108-0.014-0.156-0.042
			c-0.048-0.029-0.085-0.07-0.114-0.125c-0.028-0.056-0.043-0.12-0.044-0.192h0.627C65.947,87.229,66.012,87.217,66.058,87.193
			 M65.237,87.047c0.011-0.108,0.042-0.189,0.094-0.244c0.051-0.056,0.116-0.083,0.196-0.083c0.084,0,0.15,0.027,0.202,0.082
			c0.052,0.054,0.081,0.136,0.089,0.245H65.237z"/>
		<path clip-path="url(#SVGID_4_)" fill="#454258" d="M67.389,87.193c0.046-0.024,0.069-0.076,0.069-0.156
			c0-0.087-0.022-0.172-0.066-0.256c-0.045-0.084-0.111-0.152-0.2-0.204c-0.091-0.053-0.198-0.08-0.323-0.08
			c-0.096,0-0.184,0.015-0.263,0.046s-0.146,0.075-0.199,0.133s-0.095,0.127-0.123,0.208s-0.043,0.169-0.043,0.264
			c0,0.201,0.058,0.36,0.172,0.478c0.114,0.117,0.273,0.176,0.479,0.176c0.09,0,0.17-0.012,0.239-0.036
			c0.068-0.023,0.126-0.053,0.172-0.088c0.046-0.036,0.081-0.073,0.103-0.112c0.022-0.039,0.033-0.072,0.033-0.101
			c0-0.033-0.009-0.058-0.029-0.077c-0.021-0.018-0.047-0.027-0.08-0.027c-0.03,0-0.054,0.008-0.07,0.021
			c-0.04,0.038-0.072,0.067-0.098,0.089c-0.024,0.022-0.052,0.043-0.082,0.062c-0.029,0.019-0.061,0.034-0.092,0.042
			c-0.031,0.009-0.066,0.014-0.104,0.014c-0.058,0-0.109-0.014-0.157-0.042c-0.047-0.029-0.085-0.07-0.113-0.125
			c-0.028-0.056-0.043-0.12-0.044-0.192h0.626C67.279,87.229,67.343,87.217,67.389,87.193 M66.569,87.047
			c0.011-0.108,0.042-0.189,0.093-0.244c0.051-0.056,0.117-0.083,0.196-0.083c0.084,0,0.151,0.027,0.203,0.082
			c0.051,0.054,0.08,0.136,0.088,0.245H66.569z"/>
		<path clip-path="url(#SVGID_4_)" fill="#454258" d="M68.577,86.578c-0.083-0.051-0.174-0.076-0.272-0.076
			c-0.082,0-0.156,0.018-0.22,0.053c-0.065,0.035-0.128,0.089-0.188,0.164V86.68c0-0.059-0.014-0.103-0.043-0.134
			c-0.028-0.031-0.064-0.046-0.11-0.046s-0.083,0.016-0.109,0.045c-0.026,0.031-0.039,0.076-0.039,0.137v1.382
			c0,0.07,0.01,0.123,0.028,0.16c0.021,0.036,0.06,0.054,0.12,0.054c0.103,0,0.153-0.071,0.153-0.211v-0.48
			c0.057,0.071,0.116,0.125,0.178,0.162c0.063,0.037,0.14,0.055,0.23,0.055c0.076,0,0.146-0.015,0.214-0.045
			c0.065-0.03,0.122-0.073,0.171-0.129s0.087-0.125,0.115-0.208c0.027-0.083,0.041-0.173,0.041-0.271
			c0-0.134-0.024-0.249-0.072-0.347C68.725,86.704,68.66,86.629,68.577,86.578 M68.483,87.369c-0.027,0.062-0.063,0.108-0.109,0.139
			c-0.045,0.03-0.095,0.046-0.147,0.046c-0.09,0-0.164-0.036-0.224-0.106c-0.061-0.071-0.091-0.17-0.091-0.297
			c0-0.135,0.03-0.238,0.091-0.308c0.061-0.069,0.136-0.104,0.224-0.104c0.056,0,0.106,0.016,0.152,0.049
			c0.045,0.032,0.081,0.079,0.106,0.139s0.039,0.133,0.039,0.217C68.524,87.232,68.51,87.307,68.483,87.369"/>
		<path clip-path="url(#SVGID_4_)" fill="#454258" d="M69.165,86.5c-0.047,0-0.085,0.016-0.115,0.048
			c-0.028,0.032-0.043,0.08-0.043,0.143v0.917c0,0.062,0.015,0.11,0.043,0.144c0.03,0.034,0.068,0.05,0.115,0.05
			s0.085-0.017,0.116-0.05c0.03-0.032,0.046-0.081,0.046-0.145v-0.926c0-0.057-0.016-0.101-0.046-0.133
			C69.25,86.515,69.211,86.5,69.165,86.5"/>
		<path clip-path="url(#SVGID_4_)" fill="#454258" d="M69.167,86.037c-0.043,0-0.08,0.015-0.112,0.044
			c-0.033,0.03-0.049,0.067-0.049,0.112c0,0.05,0.016,0.088,0.048,0.116c0.031,0.027,0.068,0.042,0.113,0.042
			c0.044,0,0.081-0.014,0.112-0.042s0.047-0.066,0.047-0.116c0-0.051-0.017-0.089-0.049-0.117
			C69.247,86.051,69.209,86.037,69.167,86.037"/>
		<path clip-path="url(#SVGID_4_)" fill="#454258" d="M70.618,87.493l-0.328-0.516l0.17-0.156c0.087-0.078,0.13-0.141,0.13-0.188
			c0-0.038-0.014-0.07-0.039-0.095C70.523,86.512,70.49,86.5,70.45,86.5c-0.033,0-0.062,0.009-0.085,0.026
			c-0.024,0.017-0.058,0.049-0.103,0.096L69.902,87v-0.777c0-0.065-0.015-0.115-0.043-0.148c-0.029-0.034-0.068-0.051-0.117-0.051
			c-0.051,0-0.091,0.018-0.118,0.056c-0.026,0.038-0.041,0.091-0.041,0.162v1.366c0,0.063,0.015,0.112,0.043,0.145
			c0.027,0.033,0.066,0.05,0.116,0.05c0.042,0,0.08-0.017,0.111-0.05c0.033-0.033,0.049-0.081,0.049-0.142v-0.255l0.174-0.164
			l0.282,0.465c0.036,0.055,0.065,0.093,0.086,0.115c0.021,0.021,0.052,0.032,0.091,0.032c0.045,0,0.082-0.015,0.109-0.044
			c0.028-0.03,0.042-0.069,0.042-0.121c0-0.018-0.006-0.037-0.016-0.057C70.66,87.561,70.642,87.532,70.618,87.493"/>
		<path clip-path="url(#SVGID_4_)" fill="#454258" d="M71.051,87.449c-0.05,0-0.091,0.017-0.125,0.051
			c-0.033,0.034-0.051,0.076-0.051,0.123c0,0.057,0.019,0.101,0.054,0.131c0.035,0.032,0.076,0.047,0.125,0.047
			c0.047,0,0.087-0.016,0.123-0.048c0.034-0.031,0.052-0.075,0.052-0.131c0-0.048-0.018-0.09-0.052-0.124
			C71.141,87.466,71.1,87.449,71.051,87.449"/>
		<path clip-path="url(#SVGID_4_)" fill="#454258" d="M72.51,87.266c-0.033,0-0.062,0.011-0.084,0.031
			c-0.022,0.021-0.043,0.048-0.063,0.084c-0.035,0.062-0.075,0.107-0.122,0.136c-0.045,0.03-0.101,0.044-0.165,0.044
			c-0.047,0-0.091-0.009-0.131-0.028c-0.04-0.019-0.074-0.045-0.103-0.081c-0.028-0.036-0.05-0.079-0.063-0.129
			c-0.016-0.05-0.023-0.106-0.023-0.167c0-0.127,0.029-0.229,0.087-0.303c0.059-0.074,0.135-0.111,0.229-0.111
			c0.065,0,0.119,0.015,0.162,0.044c0.043,0.029,0.084,0.075,0.123,0.133c0.021,0.031,0.041,0.053,0.059,0.067
			c0.018,0.013,0.04,0.02,0.066,0.02c0.04,0,0.075-0.013,0.104-0.04c0.028-0.026,0.042-0.059,0.042-0.097
			c0-0.038-0.013-0.079-0.038-0.122c-0.025-0.043-0.063-0.084-0.11-0.123c-0.048-0.038-0.106-0.069-0.176-0.094
			s-0.146-0.036-0.229-0.036c-0.133,0-0.248,0.027-0.345,0.083c-0.096,0.055-0.17,0.133-0.22,0.234
			c-0.052,0.101-0.076,0.217-0.076,0.349c0,0.194,0.055,0.349,0.166,0.464c0.11,0.115,0.266,0.173,0.464,0.173
			c0.093,0,0.177-0.013,0.251-0.038s0.135-0.058,0.184-0.099c0.05-0.041,0.086-0.084,0.109-0.13
			c0.024-0.045,0.036-0.088,0.036-0.127c0-0.033-0.013-0.065-0.039-0.095C72.582,87.281,72.549,87.266,72.51,87.266"/>
		<path clip-path="url(#SVGID_4_)" fill="#454258" d="M73.855,86.68c-0.057-0.058-0.124-0.103-0.202-0.133
			c-0.079-0.032-0.167-0.047-0.264-0.047c-0.096,0-0.183,0.016-0.263,0.046c-0.079,0.031-0.146,0.075-0.201,0.132
			c-0.056,0.057-0.099,0.126-0.128,0.207s-0.045,0.169-0.045,0.267c0,0.096,0.016,0.184,0.044,0.263
			c0.03,0.079,0.073,0.148,0.13,0.207c0.056,0.058,0.123,0.103,0.2,0.133c0.078,0.032,0.165,0.047,0.263,0.047
			c0.097,0,0.185-0.016,0.264-0.046c0.077-0.031,0.146-0.075,0.201-0.133c0.057-0.058,0.1-0.127,0.13-0.208
			c0.028-0.08,0.044-0.168,0.044-0.264c0-0.097-0.016-0.184-0.044-0.265C73.955,86.807,73.913,86.739,73.855,86.68 M73.62,87.454
			c-0.057,0.074-0.134,0.11-0.23,0.11c-0.064,0-0.12-0.017-0.168-0.05c-0.047-0.033-0.083-0.081-0.109-0.144
			c-0.025-0.063-0.038-0.135-0.038-0.219c0-0.084,0.014-0.159,0.039-0.222c0.026-0.063,0.063-0.111,0.11-0.144
			s0.103-0.048,0.166-0.048c0.097,0,0.174,0.036,0.23,0.109c0.058,0.073,0.087,0.174,0.087,0.305
			C73.707,87.279,73.677,87.38,73.62,87.454"/>
		<path clip-path="url(#SVGID_4_)" fill="#454258" d="M75.816,86.554c-0.063-0.034-0.14-0.052-0.227-0.052
			c-0.075,0-0.144,0.016-0.205,0.048c-0.063,0.032-0.12,0.081-0.175,0.146c-0.037-0.064-0.085-0.113-0.143-0.145
			s-0.127-0.048-0.207-0.048c-0.078,0-0.147,0.016-0.212,0.048c-0.063,0.031-0.122,0.08-0.178,0.146v-0.03
			c0-0.051-0.015-0.092-0.044-0.122c-0.029-0.029-0.066-0.044-0.11-0.044c-0.045,0-0.081,0.016-0.109,0.047
			c-0.027,0.031-0.042,0.077-0.042,0.137V87.6c0,0.067,0.016,0.117,0.047,0.151c0.031,0.034,0.07,0.051,0.119,0.051
			s0.089-0.017,0.119-0.051c0.029-0.034,0.045-0.084,0.045-0.151v-0.432c0-0.135,0.017-0.238,0.05-0.31
			c0.033-0.073,0.103-0.108,0.207-0.108c0.052,0,0.091,0.014,0.115,0.043c0.023,0.028,0.039,0.065,0.044,0.109
			c0.006,0.044,0.009,0.107,0.009,0.188v0.51c0,0.068,0.015,0.118,0.046,0.152c0.029,0.034,0.068,0.05,0.117,0.05
			c0.05,0,0.09-0.017,0.12-0.05c0.031-0.034,0.046-0.084,0.046-0.152v-0.425c0-0.137,0.013-0.232,0.035-0.287
			c0.021-0.042,0.051-0.076,0.089-0.101c0.038-0.024,0.078-0.038,0.12-0.038c0.053,0,0.092,0.014,0.118,0.042
			c0.025,0.028,0.041,0.063,0.047,0.104c0.006,0.041,0.009,0.096,0.009,0.165V87.6c0,0.067,0.016,0.117,0.046,0.151
			c0.031,0.034,0.07,0.051,0.119,0.051c0.05,0,0.091-0.017,0.121-0.05c0.03-0.034,0.045-0.084,0.045-0.152v-0.625
			c0-0.125-0.014-0.216-0.04-0.274C75.926,86.637,75.878,86.588,75.816,86.554"/>
		<polyline clip-path="url(#SVGID_4_)" fill="#454258" points="60.348,87.073 60.348,87.071 60.348,87.073 		"/>
		<path clip-path="url(#SVGID_4_)" fill="#454258" d="M60.365,87.175L60.365,87.175c-0.006-0.029-0.011-0.058-0.015-0.086
			C60.354,87.118,60.359,87.147,60.365,87.175"/>
		<polyline clip-path="url(#SVGID_4_)" fill="#454258" points="60.47,87.473 60.468,87.469 60.47,87.473 		"/>
		<path clip-path="url(#SVGID_4_)" fill="#454258" d="M60.46,87.453c-0.003-0.005-0.006-0.011-0.008-0.017
			C60.455,87.442,60.458,87.448,60.46,87.453"/>
		<path clip-path="url(#SVGID_4_)" fill="#454258" d="M60.394,87.29c0.016,0.049,0.034,0.097,0.057,0.143
			C60.428,87.386,60.41,87.338,60.394,87.29L60.394,87.29z"/>
		<path clip-path="url(#SVGID_4_)" fill="#454258" d="M61.427,85.737l-0.015-0.051c0.059-0.012,0.104-0.065,0.104-0.127
			c0-0.072-0.059-0.13-0.131-0.13c-0.072,0-0.13,0.058-0.13,0.13c0,0.063,0.044,0.115,0.103,0.127l0.017,0.057
			c-0.202,0.028-0.362,0.106-0.362,0.106l0.028,0.087c0.122-0.041,0.229-0.065,0.324-0.076c0.094-0.01,0.165-0.015,0.223-0.015
			c0.062,0,0.107,0.005,0.16,0.014l0.015-0.094C61.762,85.766,61.617,85.722,61.427,85.737"/>
		<path clip-path="url(#SVGID_4_)" fill="#454258" d="M60.384,86.233c-0.003,0.004-0.098,0.092-0.173,0.252
			c-0.003-0.005-0.007-0.01-0.011-0.015c-0.022-0.024-0.054-0.037-0.094-0.036h-0.002c-0.024,0-0.041-0.008-0.053-0.019
			c0.012-0.014,0.018-0.031,0.018-0.051c0-0.045-0.037-0.083-0.083-0.083c-0.045,0-0.083,0.037-0.083,0.083
			c0,0.046,0.037,0.083,0.083,0.083c0.007,0,0.014-0.001,0.021-0.002c0.021,0.022,0.052,0.042,0.1,0.042
			c0.024,0,0.042,0.006,0.054,0.019c0.014,0.015,0.019,0.036,0.021,0.052c-0.001,0-0.001,0.001-0.001,0.001
			c-0.054,0.147-0.038,0.33-0.038,0.33l0.13,0.005c0.003-0.066,0.013-0.183,0.046-0.275c0.065-0.179,0.147-0.291,0.15-0.296
			l0.001-0.001c0.004-0.006,0.009-0.012,0.014-0.017l-0.039-0.028L60.384,86.233z"/>
		<path clip-path="url(#SVGID_4_)" fill="#454258" d="M62.723,85.956c-0.046,0-0.083,0.037-0.083,0.082
			c0,0.007,0.001,0.014,0.003,0.021c-0.022,0.021-0.042,0.053-0.042,0.1c0,0.024-0.006,0.042-0.019,0.054
			c-0.011,0.01-0.023,0.015-0.037,0.018c-0.097-0.136-0.217-0.219-0.217-0.219l-0.093,0.101c0.07,0.064,0.143,0.145,0.213,0.246
			c0.049,0.07,0.099,0.159,0.141,0.249l0.126-0.061c0,0-0.058-0.143-0.139-0.271c0.014-0.005,0.028-0.012,0.041-0.023
			c0.024-0.022,0.037-0.054,0.036-0.094c0-0.025,0.008-0.043,0.018-0.054c0.014,0.011,0.032,0.018,0.051,0.018
			c0.045,0,0.082-0.037,0.082-0.083C62.805,85.993,62.769,85.956,62.723,85.956"/>
		<path clip-path="url(#SVGID_4_)" fill="#454258" d="M62.395,87.092c-0.174,0.084-0.46,0.197-0.837,0.249
			c-0.148,0.021-0.292,0.028-0.424,0.028c-0.171,0-0.323-0.013-0.439-0.027c-0.133-0.017-0.236-0.038-0.3-0.052
			c0.015,0.048,0.034,0.096,0.056,0.143c0,0.001,0.001,0.002,0.001,0.003c0.002,0.005,0.005,0.011,0.008,0.017
			c0.002,0.005,0.005,0.011,0.008,0.016c0.001,0.001,0.001,0.003,0.002,0.004c0.037,0.071,0.082,0.135,0.134,0.191
			c0.177,0.195,0.358,0.226,0.36,0.226l0.003,0l0.003,0.001c0.001,0,0.162,0.052,0.406,0.052c0.24,0,0.476-0.048,0.701-0.144
			c0.166-0.085,0.323-0.214,0.401-0.329c0.061-0.089,0.104-0.185,0.13-0.283c0.014-0.053,0.024-0.137,0.018-0.226
			C62.577,86.994,62.5,87.041,62.395,87.092"/>
		<path clip-path="url(#SVGID_4_)" fill="#454258" d="M61.741,85.93c-0.053-0.008-0.094-0.013-0.153-0.013
			c-0.056,0-0.124,0.004-0.215,0.014c-0.091,0.01-0.194,0.034-0.313,0.074c-0.166,0.056-0.316,0.143-0.435,0.253l-0.003,0.003
			c-0.018,0.016-0.055,0.05-0.097,0.104c-0.005,0.007-0.081,0.114-0.14,0.278c-0.044,0.123-0.043,0.301-0.043,0.304l0,0
			c0,0.042,0.002,0.083,0.007,0.125c0,0.001,0,0.001,0,0.002c0,0.005,0.001,0.01,0.002,0.016c0.004,0.029,0.009,0.058,0.015,0.086
			c0.086,0.022,0.603,0.143,1.179,0.063c0.361-0.05,0.636-0.157,0.802-0.238c0.139-0.067,0.228-0.127,0.262-0.152
			c-0.034-0.127-0.129-0.326-0.215-0.45C62.145,86.043,61.877,85.953,61.741,85.93 M61.021,86.969c-0.192,0-0.348-0.156-0.348-0.348
			s0.156-0.348,0.348-0.348s0.348,0.156,0.348,0.348S61.213,86.969,61.021,86.969 M62.039,86.712c-0.119,0-0.215-0.097-0.215-0.215
			s0.096-0.215,0.215-0.215c0.118,0,0.215,0.097,0.215,0.215S62.157,86.712,62.039,86.712"/>
	</g>
	<path clip-path="url(#SVGID_2_)" fill="#0A0A0A" d="M30.304,8.574c-0.015-0.422-0.036-0.844-0.068-1.266
		c-0.137-1.787-0.336-3.834-1.518-5.264c-1.011-1.224-2.576-1.5-4.062-1.668c-1.882-0.213-3.773-0.341-5.665-0.414
		C15.159-0.185,11.322-0.1,7.489-0.015C5.52,0.029,3.549,0.073,1.586,0.229c-2.411,0.192-4.891,0.545-6.014,2.955
		c-1.008,2.163-0.883,4.908-0.896,7.235c-0.012,2.086-0.019,4.173,0.065,6.258c0.108,2.706,0.269,6.23,3.189,7.417
		c1.559,0.634,3.441,0.775,5.107,0.884c1.765,0.114,3.535,0.101,5.302,0.127c3.708,0.055,7.414-0.072,11.12-0.146
		c2.574-0.051,5.216-0.08,7.68-0.92c2.126-0.726,2.681-3.03,2.969-5.028c0.286-1.986,0.213-4.002,0.209-6.002
		C30.316,11.531,30.355,10.051,30.304,8.574"/>
	<path clip-path="url(#SVGID_2_)" fill="#FFFFFF" d="M18.12,12.46c-3.114-1.829-6.159-3.617-9.234-5.423v10.849
		C11.971,16.073,15.018,14.283,18.12,12.46"/>
</g>
</svg>
